<?xml version="1.0" encoding="utf-8"?>
<!-- Generator: Adobe Illustrator 28.2.0, SVG Export Plug-In . SVG Version: 6.00 Build 0)  -->
<svg version="1.1" id="Layer_1" xmlns="http://www.w3.org/2000/svg" xmlns:xlink="http://www.w3.org/1999/xlink" x="0px" y="0px"
	 viewBox="0 0 256 256" style="enable-background:new 0 0 256 256;" xml:space="preserve">
<style type="text/css">
	.st0{fill-rule:evenodd;clip-rule:evenodd;fill:#4D90FE;}
	.st1{fill-rule:evenodd;clip-rule:evenodd;fill:#FFFFFF;}
	.st2{fill-rule:evenodd;clip-rule:evenodd;fill:#161616;}
</style>
<g>
	<path class="st0" d="M167.64,78.94v-32.6l32.26,32.6H167.64z M168.06,41.97c-5.58,2.72-9.76,7.3-12.81,12.5
		c-4.91-8.34-12.72-15.11-24.54-15.11c-11.83,0-26.33,10.15-26.33,27.28c0,17.35,14.33,25.57,21.42,30.22
		c7.58,4.96,20.53,13.98,29.45,30.66c8.93-16.69,21.87-25.7,29.45-30.66c5.33-3.49,14.75-9.01,19.1-18.9L168.06,41.97z"/>
	<path class="st1" d="M167.63,78.94v-32.6l32.26,32.6H167.63z"/>
	<path class="st2" d="M53.98,109.1h4.2c1.33,0,2.86-1.85,2.86-3.09V61.18c0-1.24-1.54-2.99-2.86-2.99h-4.2V47.37h33.66v10.82h-4.3
		c-1.33,0-2.76,1.75-2.76,2.99V106c0,1.24,1.43,3.09,2.76,3.09h4.3v10.41H53.98V109.1z"/>
	<path class="st2" d="M28.33,205.3h4.18c1.33,0,2.86-1.86,2.86-3.09v-44.87c0-1.24-1.53-2.99-2.86-2.99h-4.18v-10.83h33.58v10.83
		h-4.29c-1.33,0-2.76,1.75-2.76,2.99v44.87c0,1.24,1.43,3.09,2.76,3.09h4.29v10.42H28.33V205.3z"/>
	<path class="st2" d="M68.96,205.3h3.47c1.43,0,2.96-1.86,2.96-3.09v-44.87c0-1.24-1.53-2.99-2.96-2.99h-3.47v-10.83h33.88
		l11.12,41.88h0.31l11.23-41.88h33.78v10.83h-3.57c-1.33,0-2.86,1.75-2.86,2.99v44.87c0,1.24,1.53,3.09,2.86,3.09h3.57v10.42h-32.05
		V205.3h6.43v-47.14h-0.31l-15.82,57.55h-12.25l-15.62-57.55h-0.31v47.14h6.74v10.42H68.96V205.3z"/>
	<path class="st2" d="M160.71,180.03c0-24.03,13.47-37.44,35.52-37.44c5.2,0,9.39,0.52,11.63,0.93h13.68v23.72h-12.66l-1.94-10.52
		c-1.94-0.72-5-1.34-8.67-1.34c-9.9,0-16.94,6.7-16.94,23.83c0,16.4,4.8,25.17,15.1,25.17c3.57,0,5.51-0.31,7.55-0.93v-12.69h-6.12
		v-10.52h29.8v10.62h-2.04c-1.43,0-2.86,1.86-2.86,3.09v21.76h-9.9c0,0-0.92-2.17-2.86-2.17c-3.67,1.86-8.57,3.09-14.8,3.09
		C172.86,216.64,160.71,203.75,160.71,180.03z"/>
</g>
</svg>
